<svg width="16" height="8" viewBox="0 0 16 8" fill="none" xmlns="http://www.w3.org/2000/svg">
<path d="M0.292432 0.65553C0.619931 0.403652 1.08925 0.464156 1.34223 0.790296L1.34478 0.793495C1.34816 0.797716 1.35472 0.805815 1.36448 0.81748C1.38399 0.840817 1.41624 0.878371 1.46135 0.92765C1.55162 1.02627 1.69298 1.17141 1.88633 1.34333C2.27335 1.68743 2.86585 2.13627 3.67161 2.53504C4.72929 3.05847 6.16282 3.50004 7.99966 3.50004C9.83651 3.50004 11.27 3.05847 12.3277 2.53504C13.1335 2.13627 13.726 1.68743 14.113 1.34333C14.3063 1.17141 14.4477 1.02627 14.538 0.92765C14.5831 0.878371 14.6153 0.840817 14.6349 0.81748C14.6446 0.805815 14.6512 0.797716 14.6545 0.793495L14.6568 0.790689C14.9098 0.464531 15.3794 0.403647 15.7069 0.65553C16.0352 0.908052 16.0967 1.37893 15.8442 1.70727L15.8429 1.70892L15.8413 1.71097L15.8372 1.71627L15.8251 1.73151C15.8153 1.74369 15.8021 1.75988 15.7855 1.77974C15.7523 1.81945 15.7053 1.8739 15.6444 1.94044C15.5227 2.07345 15.3449 2.2552 15.1097 2.46432C14.758 2.777 14.2764 3.15225 13.6607 3.51715L14.8819 5.90899C15.0703 6.2779 14.9239 6.72965 14.555 6.91801C14.1861 7.10636 13.7343 6.96 13.546 6.59108L12.317 4.18408C11.3369 4.58422 10.1493 4.89469 8.74966 4.97794V7.25004C8.74966 7.66425 8.41388 8.00004 7.99966 8.00004C7.58545 8.00004 7.24966 7.66425 7.24966 7.25004V4.97794C5.85001 4.89469 4.66248 4.58422 3.68229 4.18408L2.45335 6.59108C2.265 6.96 1.81324 7.10636 1.44433 6.91801C1.07542 6.72965 0.929051 6.2779 1.11741 5.90899L2.33861 3.51715C1.72289 3.15225 1.24133 2.777 0.889647 2.46432C0.654451 2.2552 0.476642 2.07345 0.354889 1.94044C0.293984 1.8739 0.247008 1.81945 0.213799 1.77974C0.197191 1.75988 0.184015 1.74369 0.174251 1.73151L0.162157 1.71627L0.158021 1.71097L0.15643 1.70892L0.155753 1.70804C-0.0967688 1.37971 -0.0359056 0.908052 0.292432 0.65553Z" fill="#1A1926"/>
</svg>
